<svg width="31" height="20" viewBox="0 0 31 20" fill="none" xmlns="http://www.w3.org/2000/svg">
<path fill-rule="evenodd" clip-rule="evenodd" d="M15.9501 6.52071L23.9547 1.32952C24.6475 0.880396 25.7708 0.880396 26.4637 1.32952C27.1565 1.77887 27.1565 2.50728 26.4637 2.95661L17.6824 8.65145C17.2004 8.96423 16.51 9.05939 15.9012 8.93695C15.3209 9.03063 14.6814 8.93038 14.2278 8.6362L5.50532 2.9794C4.81706 2.53269 4.81706 1.80937 5.50532 1.36312C6.19344 0.916666 7.30922 0.916666 7.99738 1.36312L15.9501 6.52071ZM15.9322 16.5911L26.8474 9.45328C27.7921 8.83543 29.3239 8.83543 30.2686 9.45328C31.2134 10.0709 31.2134 11.0726 30.2686 11.6905L18.2942 19.521C17.6369 19.9509 16.6955 20.0817 15.8653 19.9134C15.074 20.0422 14.202 19.9044 13.5833 19.5L1.68905 11.7214C0.750621 11.108 0.750621 10.1131 1.68905 9.49928C2.62746 8.88564 4.14895 8.88564 5.08735 9.49928L15.9322 16.5911Z" fill="white"/>
</svg>
